# xmcd
#
# Track frame offsets:
#  150
#  21296
#  37832
#  50538
#  76970
#  94004
#  118077
#  126784
#  161074
#  184808
#  201487
#  205661
#  218006
#  246170
#
# Disc length: 3603 seconds
#
# Revision: 1
# Processed by: cddbd v1.4PL0 Copyright (c) Steve Scherf et al.
# Submitted via: AltoMP3_Maker 3.0
#
DISCID=c00e110e
DTITLE=Kyuss - Blues for the red sun
DYEAR=1900
DGENRE=
TTITLE0=thumb
TTITLE1=green machine
TTITLE2=molthern universe
TTITLE3=50 milion year trip (downside up)
TTITLE4=thong song
TTITLE5=apothecaries' weight
TTITLE6=caterpillar march
TTITLE7=freedom run
TTITLE8=800
TTITLE9=writhe
TTITLE10=capsized
TTITLE11=allen's wrench
TTITLE12=mondo generator
TTITLE13=yeah
EXTD=
EXTT0=
EXTT1=
EXTT2=
EXTT3=
EXTT4=
EXTT5=
EXTT6=
EXTT7=
EXTT8=
EXTT9=
EXTT10=
EXTT11=
EXTT12=
EXTT13=
PLAYORDER=
